<svg version="1.1" id="Layer_1" xmlns="http://www.w3.org/2000/svg" xmlns:xlink="http://www.w3.org/1999/xlink"
  viewBox="0 0 512 512" xml:space="preserve">
  <g id="SVGRepo_bgCarrier" stroke-width="0"></g>
  <g id="SVGRepo_tracerCarrier" stroke-linecap="round" stroke-linejoin="round"></g>
  <g id="SVGRepo_iconCarrier">
    <g>
      <g>
        <path
          d="M461.31,264.901c-3.082-3.079-8.075-3.079-11.156,0l-11.545,11.545l-20.494-20.364l20.512-20.512l11.527,11.527 c3.04,3.038,8.116,3.038,11.156,0l46.109-46.109c3.036-3.038,3.036-8.117,0-11.156L340.831,23.247 c-3.038-3.036-8.117-3.036-11.156,0l-46.108,46.109c-3.081,3.082-3.081,8.075,0,11.156l11.526,11.526l-20.969,20.968 L169.782,9.071c-12.097-12.095-31.78-12.096-43.877,0.001c-3.932,3.932-6.579,8.669-7.954,13.684 c-5.695-5.104-12.971-7.898-20.678-7.898c-8.288,0-16.079,3.228-21.938,9.088c-3.918,3.918-6.559,8.634-7.938,13.628l-1.729-1.729 c-5.86-5.859-13.652-9.087-21.939-9.087s-16.079,3.227-21.938,9.087c-5.86,5.86-9.088,13.652-9.088,21.939 c0,8.288,3.228,16.079,9.088,21.938l3.201,3.202c-5.098,1.411-9.772,4.112-13.614,7.953c-12.097,12.097-12.097,31.781,0,43.878 l107.059,108.186H83.305c-18.847,0-34.181,15.333-34.181,34.181c0,16.797,12.181,30.793,28.172,33.642 c-0.107,0.272-0.197,0.55-0.272,0.832l-65.646,65.646c-12.097,12.097-12.097,31.781,0,43.877 c3.841,3.842,8.516,6.543,13.614,7.954l-3.201,3.201c-9.15,9.149-11.673,23.463-6.139,35.178 c5.555,11.759,18.193,18.885,31.118,17.641c7.119-0.685,13.844-3.887,18.899-8.942l1.729-1.729 c1.38,4.994,4.021,9.71,7.939,13.627c5.859,5.86,13.65,9.089,21.938,9.089c7.707,0,14.983-2.795,20.678-7.9 c1.376,5.016,4.021,9.753,7.954,13.686c6.049,6.047,13.994,9.072,21.939,9.072c7.945-0.001,15.89-3.025,21.938-9.072 l104.83-103.448l20.482,20.482l-11.526,11.526c-3.081,3.082-3.081,8.075,0,11.156l46.108,46.109c3.038,3.036,8.117,3.036,11.156,0 l53.549-53.549c3.081-3.082,3.081-8.075,0-11.156c-3.082-3.079-8.075-3.079-11.156,0l-47.971,47.972l-34.952-34.953 l155.431-155.431l34.953,34.953l-83.182,83.18c-3.081,3.082-3.081,8.075,0,11.156c3.082,3.078,8.075,3.081,11.156,0l88.759-88.758 c3.036-3.039,3.036-8.117,0-11.156L461.31,264.901z M335.254,39.98l155.432,155.431l-34.953,34.953L300.3,74.933L335.254,39.98z M137.06,20.228c5.945-5.945,15.621-5.945,21.571,0.004l46.433,46.366l-21.96,21.24l-46.06-46.06 C131.115,35.83,131.12,26.169,137.06,20.228z M86.49,35.101c5.879-5.878,15.689-5.878,21.567,0.001l63.705,63.706l-21.927,21.207 L86.489,56.669C80.543,50.722,80.543,41.048,86.49,35.101z M32.944,47c5.878-5.877,15.69-5.877,21.567,0.001l20.823,20.823 l63.159,63.16l-21.927,21.207L32.943,68.567C27.065,62.689,27.067,52.878,32.944,47z M22.533,123.6 c-5.947-5.947-5.947-15.62,0-21.567c5.878-5.877,15.69-5.877,21.567,0.001l61.126,61.126l-21.927,21.206L22.533,123.6z M22.533,409.965c-5.945-5.945-5.945-15.62,0-21.566l62.807-62.807l21.445,21.688l-62.687,62.687 c-2.88,2.88-6.709,4.465-10.781,4.465C29.243,414.432,25.413,412.846,22.533,409.965z M54.511,464.998 c-4.478,4.479-11.479,5.731-17.226,3.049c-5.766-2.69-9.3-8.849-8.749-15.18c0.309-3.553,1.888-6.914,4.409-9.434l84.932-84.933 l21.445,21.688L54.511,464.998z M108.057,476.898c-2.881,2.881-6.71,4.468-10.783,4.468s-7.903-1.587-10.783-4.468 c-5.945-5.945-5.945-15.62,0-21.566l63.923-63.925l21.445,21.689L108.057,476.898z M158.627,491.771 c-5.946,5.945-15.621,5.944-21.567,0.001c-5.944-5.945-5.945-15.616-0.005-21.563l45.896-45.896l21.445,21.688L158.627,491.771z M215.624,434.921L93.397,311.305h93.042l77.019,77.019L215.624,434.921z M385.824,329.228l-7.206-7.206 c-3.082-3.079-8.075-3.079-11.156,0c-3.081,3.082-3.081,8.075,0,11.156l7.206,7.206l-68.42,68.42L195.283,297.839 c-1.479-1.479-3.485-2.31-5.577-2.31H83.305c-10.148,0-18.405-8.257-18.405-18.405s8.257-18.405,18.405-18.405h53.814 c1.313,0,2.699-0.391,3.95-0.757c1.261-0.368,2.419-1.055,3.349-1.984c3.477-3.478,7.2-6.729,11.066-9.667 c3.469-2.635,4.144-7.583,1.509-11.053c-2.636-3.469-7.583-4.143-11.053-1.509c-2.737,2.078-5.399,4.308-7.979,6.635 l-43.583-44.786L216.244,77.733L349.59,210.231c3.09,3.069,8.085,3.055,11.155-0.036c3.071-3.09,3.054-8.085-0.036-11.155 l-75.392-74.913l20.933-20.934l121.221,121.221l-20.548,20.547l-22.042-21.902c-3.09-3.069-8.085-3.055-11.155,0.036 c-3.071,3.09-3.054,8.085,0.036,11.155l53.691,53.35L385.824,329.228z">
        </path>
      </g>
    </g>
    <g>
      <g>
        <path
          d="M356.309,299.713l-11.156-11.154c-3.082-3.079-8.075-3.079-11.156,0c-3.081,3.082-3.081,8.075,0,11.156l11.155,11.155 c3.209,3.207,8.626,2.993,11.575-0.453C359.37,307.328,359.18,302.585,356.309,299.713z">
        </path>
      </g>
    </g>
    <g>
      <g>
        <path
          d="M200.95,218.391c-0.961-4.248-5.182-6.916-9.434-5.953c-5.473,1.238-10.914,2.888-16.17,4.906 c-3.801,1.46-5.903,5.733-4.727,9.634c1.306,4.332,6.153,6.715,10.382,5.094c4.551-1.747,9.26-3.177,13.994-4.247 C199.245,226.865,201.91,222.64,200.95,218.391z">
        </path>
      </g>
    </g>
    <g>
      <g>
        <path
          d="M241.864,212.151c-5.496-1.179-11.128-1.967-16.739-2.341c-4.337-0.294-8.106,3-8.395,7.345 c-0.29,4.347,2.998,8.106,7.345,8.395c4.854,0.324,9.725,1.004,14.48,2.025c4.203,0.906,8.466-1.858,9.367-6.059 C248.823,217.315,246.066,213.053,241.864,212.151z">
        </path>
      </g>
    </g>
    <g>
      <g>
        <path
          d="M322.841,266.246l-11.157-11.155c-3.081-3.081-8.075-3.081-11.155,0.001c-3.081,3.081-3.081,8.075,0.001,11.155 l11.156,11.155c3.209,3.209,8.625,2.991,11.574-0.453C325.904,273.862,325.714,269.117,322.841,266.246z">
        </path>
      </g>
    </g>
    <g>
      <g>
        <path
          d="M287.667,232.946c-4.52-3.354-9.302-6.41-14.211-9.081c-3.827-2.082-8.617-0.667-10.698,3.159 c-2.081,3.827-0.668,8.616,3.159,10.698c4.264,2.32,8.417,4.974,12.345,7.891c3.779,2.804,9.298,1.599,11.591-2.493 C291.767,239.709,290.803,235.275,287.667,232.946z">
        </path>
      </g>
    </g>
  </g>
</svg>