<svg version="1.1" id="Layer_1" xmlns="http://www.w3.org/2000/svg"
  xmlns:xlink="http://www.w3.org/1999/xlink" viewBox="0 0 512 512" xml:space="preserve">
  <g id="SVGRepo_bgCarrier" stroke-width="0"></g>
  <g id="SVGRepo_tracerCarrier" stroke-linecap="round" stroke-linejoin="round"></g>
  <g id="SVGRepo_iconCarrier">
    <g>
      <g>
        <path
          d="M487.541,113.053h-97.834c-13.486,0-24.459,10.973-24.459,24.459v105.987h-18.48v-78.811c0-1.532-0.452-3.085-1.275-4.376 L292.592,77.18h2.542c4.504,0,8.153-3.649,8.153-8.153c0-4.504-3.649-8.153-8.153-8.153H138.599c-4.504,0-8.153,3.649-8.153,8.153 c0,4.504,3.649,8.153,8.153,8.153h2.542l-52.901,83.131c-0.822,1.29-1.275,2.846-1.275,4.376v78.811h-18.48v-10.327 c0-13.486-10.973-24.459-24.459-24.459h-1.631v-10.772c14.957-3.668,26.089-17.182,26.089-33.254s-11.132-29.585-26.089-33.254 V77.18h9.24c4.504,0,8.153-3.649,8.153-8.153V24.459C59.788,10.973,48.815,0,35.329,0h-2.174C19.669,0,8.696,10.973,8.696,24.459 v44.569c0,4.504,3.649,8.153,8.153,8.153h9.24v54.253C11.132,135.103,0,148.616,0,164.688s11.132,29.585,26.089,33.254v10.772 h-1.631C10.973,208.713,0,219.686,0,233.172v158.709c0,13.486,10.973,24.459,24.459,24.459h24.374 c-3.443,8.2-5.35,17.197-5.35,26.633c0,38.062,30.966,69.028,69.028,69.028c38.062,0,69.028-30.966,69.028-69.028 c0-9.436-1.908-18.433-5.35-26.633h92.858c4.504,0,8.153-3.649,8.153-8.153c0-4.504-3.649-8.153-8.153-8.153H166.497 c-12.658-15.882-32.147-26.089-53.987-26.089s-41.33,10.207-53.987,26.089H24.459c-4.496,0-8.153-3.657-8.153-8.153V233.172 c0-4.496,3.657-8.153,8.153-8.153h19.567c4.496,0,8.153,3.657,8.153,8.153v80.442c0,13.486,10.973,24.459,24.459,24.459h280.459 c13.486,0,24.459-10.973,24.459-24.459V137.512c0-4.496,3.657-8.153,8.153-8.153h97.834c4.496,0,8.153,3.657,8.153,8.153v175.015 c0,4.504,3.649,8.153,8.153,8.153S512,317.03,512,312.527V137.512C512,124.026,501.027,113.053,487.541,113.053z M112.51,390.251 c29.071,0,52.722,23.651,52.722,52.722c0,29.071-23.651,52.722-52.722,52.722c-29.071,0-52.722-23.651-52.722-52.722 C59.788,413.901,83.439,390.251,112.51,390.251z M25.002,60.875V24.459c0-4.496,3.657-8.153,8.153-8.153h2.174 c4.496,0,8.153,3.657,8.153,8.153v36.416H25.002z M16.306,164.688c0-9.89,8.046-17.936,17.936-17.936 c9.89,0,17.936,8.046,17.936,17.936c0,9.89-8.046,17.936-17.936,17.936C24.352,182.624,16.306,174.578,16.306,164.688z M160.467,77.18h112.799l50.499,79.355H109.968L160.467,77.18z M103.27,172.841h227.193v70.658H103.27V172.841z M103.27,260.348 h227.193v2.174c0,13.486-10.973,24.459-24.459,24.459H127.728c-13.486,0-24.459-10.973-24.459-24.459V260.348z M365.248,313.614 c0,4.496-3.657,8.153-8.153,8.153H76.637c-4.496,0-8.153-3.657-8.153-8.153v-53.809h18.48v2.718 c0,22.478,18.286,40.764,40.764,40.764h178.276c22.478,0,40.764-18.286,40.764-40.764v-2.718h18.48V313.614z">
        </path>
      </g>
    </g>
    <g>
      <g>
        <path
          d="M503.847,347.856c-4.504,0-8.153,3.649-8.153,8.153v35.873c0,4.496-3.657,8.153-8.153,8.153h-25.367 c-12.658-15.882-32.147-26.089-53.987-26.089c-21.84,0-41.33,10.207-53.987,26.089h-41.673c-4.504,0-8.153,3.649-8.153,8.153 c0,4.504,3.649,8.153,8.153,8.153h31.983c-3.443,8.2-5.35,17.197-5.35,26.633c0,38.062,30.966,69.028,69.028,69.028 c38.062,0,69.028-30.966,69.028-69.028c0-9.436-1.908-18.433-5.35-26.633h15.677c13.486,0,24.459-10.973,24.459-24.459v-35.873 C512,351.505,508.351,347.856,503.847,347.856z M408.187,495.694c-29.071,0-52.722-23.651-52.722-52.722 c0-29.071,23.651-52.722,52.722-52.722c29.071,0,52.722,23.651,52.722,52.722C460.909,472.043,437.258,495.694,408.187,495.694z">
        </path>
      </g>
    </g>
    <g>
      <g>
        <path
          d="M112.51,408.73c-18.881,0-34.242,15.361-34.242,34.242s15.361,34.242,34.242,34.242c18.881,0,34.242-15.361,34.242-34.242 S131.391,408.73,112.51,408.73z M112.51,460.909c-9.89,0-17.936-8.046-17.936-17.936s8.046-17.936,17.936-17.936 c9.89,0,17.936,8.046,17.936,17.936S122.4,460.909,112.51,460.909z">
        </path>
      </g>
    </g>
    <g>
      <g>
        <path
          d="M408.187,408.73c-18.881,0-34.242,15.361-34.242,34.242s15.361,34.242,34.242,34.242 c18.881,0,34.242-15.361,34.242-34.242S427.068,408.73,408.187,408.73z M408.187,460.909c-9.89,0-17.936-8.046-17.936-17.936 s8.046-17.936,17.936-17.936c9.89,0,17.936,8.046,17.936,17.936S418.077,460.909,408.187,460.909z">
        </path>
      </g>
    </g>
    <g>
      <g>
        <path
          d="M477.758,147.839H399.49c-4.504,0-8.153,3.649-8.153,8.153v173.928c0,4.504,3.649,8.153,8.153,8.153h78.268 c4.504,0,8.153-3.649,8.153-8.153V155.992C485.911,151.488,482.262,147.839,477.758,147.839z M469.605,321.766h-61.962V164.144 h61.962V321.766z">
        </path>
      </g>
    </g>
    <g>
      <g>
        <path
          d="M451.669,182.624H425.58c-4.504,0-8.153,3.649-8.153,8.153c0,4.504,3.649,8.153,8.153,8.153h26.089 c4.504,0,8.153-3.649,8.153-8.153C459.822,186.273,456.172,182.624,451.669,182.624z">
        </path>
      </g>
    </g>
    <g>
      <g>
        <path
          d="M451.669,217.41H425.58c-4.504,0-8.153,3.649-8.153,8.153c0,4.504,3.649,8.153,8.153,8.153h26.089 c4.504,0,8.153-3.649,8.153-8.153C459.822,221.059,456.172,217.41,451.669,217.41z">
        </path>
      </g>
    </g>
    <g>
      <g>
        <path
          d="M451.669,252.195H425.58c-4.504,0-8.153,3.649-8.153,8.153s3.649,8.153,8.153,8.153h26.089 c4.504,0,8.153-3.649,8.153-8.153S456.172,252.195,451.669,252.195z">
        </path>
      </g>
    </g>
    <g>
      <g>
        <path
          d="M451.669,286.981H425.58c-4.504,0-8.153,3.649-8.153,8.153s3.649,8.153,8.153,8.153h26.089 c4.504,0,8.153-3.649,8.153-8.153S456.172,286.981,451.669,286.981z">
        </path>
      </g>
    </g>
  </g>
</svg>